<svg xmlns="http://www.w3.org/2000/svg" style="display:none" aria-hidden="true">
  <symbol id="icon-battery" viewBox="0 0 24 24">
    <rect x="2" y="7" width="18" height="10" rx="2" fill="none" stroke="currentColor" stroke-width="1.5" stroke-linejoin="round"/>
    <line x1="22" y1="11" x2="22" y2="13" stroke="currentColor" stroke-width="2" stroke-linecap="round"/>
    <rect x="4" y="9" width="5" height="6" rx="1" fill="currentColor"/>
  </symbol>
  <symbol id="icon-solar" viewBox="0 0 24 24">
    <rect x="2" y="3" width="20" height="13" rx="1" fill="none" stroke="currentColor" stroke-width="1.5"/>
    <line x1="2" y1="8" x2="22" y2="8" stroke="currentColor" stroke-width="1.5"/>
    <line x1="2" y1="12" x2="22" y2="12" stroke="currentColor" stroke-width="1.5"/>
    <line x1="8" y1="3" x2="8" y2="16" stroke="currentColor" stroke-width="1.5"/>
    <line x1="14" y1="3" x2="14" y2="16" stroke="currentColor" stroke-width="1.5"/>
    <line x1="8" y1="19" x2="16" y2="19" stroke="currentColor" stroke-width="1.5" stroke-linecap="round"/>
    <line x1="12" y1="16" x2="12" y2="19" stroke="currentColor" stroke-width="1.5" stroke-linecap="round"/>
  </symbol>
  <symbol id="icon-home" viewBox="0 0 24 24">
    <path d="M3 10.5L12 3l9 7.5V21a1 1 0 01-1 1H5a1 1 0 01-1-1V10.5z" fill="none" stroke="currentColor" stroke-width="1.5" stroke-linejoin="round"/>
    <path d="M9 22V12h6v10" fill="none" stroke="currentColor" stroke-width="1.5" stroke-linejoin="round"/>
  </symbol>
  <symbol id="icon-cabin" viewBox="0 0 24 24">
    <path d="M3 12L12 3l9 9" fill="none" stroke="currentColor" stroke-width="1.5" stroke-linecap="round" stroke-linejoin="round"/>
    <path d="M5 10v10a1 1 0 001 1h4v-5h4v5h4a1 1 0 001-1V10" fill="none" stroke="currentColor" stroke-width="1.5" stroke-linejoin="round"/>
    <line x1="18" y1="3" x2="18" y2="7" stroke="currentColor" stroke-width="1.5" stroke-linecap="round"/>
    <line x1="15" y1="3" x2="21" y2="3" stroke="currentColor" stroke-width="1.5" stroke-linecap="round"/>
  </symbol>
  <symbol id="icon-van" viewBox="0 0 24 24">
    <path d="M1 11V8a1 1 0 011-1h13l4 5H22a1 1 0 011 1v2a1 1 0 01-1 1H1z" fill="none" stroke="currentColor" stroke-width="1.5" stroke-linejoin="round"/>
    <circle cx="6" cy="17" r="2" fill="none" stroke="currentColor" stroke-width="1.5"/>
    <circle cx="18" cy="17" r="2" fill="none" stroke="currentColor" stroke-width="1.5"/>
    <line x1="8" y1="17" x2="16" y2="17" stroke="currentColor" stroke-width="1.5"/>
    <line x1="1" y1="11" x2="15" y2="11" stroke="currentColor" stroke-width="1.5"/>
  </symbol>
  <symbol id="icon-camping" viewBox="0 0 24 24">
    <path d="M12 2L2 20h20L12 2z" fill="none" stroke="currentColor" stroke-width="1.5" stroke-linejoin="round"/>
    <line x1="12" y1="2" x2="8" y2="20" stroke="currentColor" stroke-width="1" stroke-linecap="round" opacity="0.5"/>
    <line x1="12" y1="2" x2="16" y2="20" stroke="currentColor" stroke-width="1" stroke-linecap="round" opacity="0.5"/>
    <line x1="2" y1="20" x2="22" y2="20" stroke="currentColor" stroke-width="1.5" stroke-linecap="round"/>
  </symbol>
  <symbol id="icon-worksite" viewBox="0 0 24 24">
    <rect x="2" y="14" width="20" height="7" rx="1" fill="none" stroke="currentColor" stroke-width="1.5"/>
    <path d="M7 14V9a5 5 0 0110 0v5" fill="none" stroke="currentColor" stroke-width="1.5" stroke-linecap="round"/>
    <line x1="12" y1="9" x2="12" y2="14" stroke="currentColor" stroke-width="1.5" stroke-linecap="round"/>
  </symbol>
  <symbol id="icon-emergency" viewBox="0 0 24 24">
    <path d="M10.29 3.86L1.82 18a2 2 0 001.71 3h16.94a2 2 0 001.71-3L13.71 3.86a2 2 0 00-3.42 0z" fill="none" stroke="currentColor" stroke-width="1.5" stroke-linejoin="round"/>
    <line x1="12" y1="9" x2="12" y2="13" stroke="currentColor" stroke-width="2" stroke-linecap="round"/>
    <circle cx="12" cy="17" r="1" fill="currentColor"/>
  </symbol>
  <symbol id="icon-zap" viewBox="0 0 24 24">
    <path d="M13 2L4.5 13.5H12L11 22l8.5-11.5H12L13 2z" fill="none" stroke="currentColor" stroke-width="1.5" stroke-linejoin="round" stroke-linecap="round"/>
  </symbol>
  <symbol id="icon-shield" viewBox="0 0 24 24">
    <path d="M12 2L3 6v6c0 5.25 3.75 10.15 9 11.25C17.25 22.15 21 17.25 21 12V6L12 2z" fill="none" stroke="currentColor" stroke-width="1.5" stroke-linejoin="round"/>
    <polyline points="9 12 11 14 15 10" fill="none" stroke="currentColor" stroke-width="1.5" stroke-linecap="round" stroke-linejoin="round"/>
  </symbol>
  <symbol id="icon-weight" viewBox="0 0 24 24">
    <path d="M5 6l-2 15h18L19 6" fill="none" stroke="currentColor" stroke-width="1.5" stroke-linejoin="round"/>
    <path d="M9 6a3 3 0 006 0" fill="none" stroke="currentColor" stroke-width="1.5"/>
    <line x1="3" y1="6" x2="21" y2="6" stroke="currentColor" stroke-width="1.5" stroke-linecap="round"/>
  </symbol>
  <symbol id="icon-power" viewBox="0 0 24 24">
    <line x1="12" y1="2" x2="12" y2="12" stroke="currentColor" stroke-width="2" stroke-linecap="round"/>
    <path d="M6.34 6.34a8 8 0 100 11.32" fill="none" stroke="currentColor" stroke-width="2" stroke-linecap="round"/>
  </symbol>
  <symbol id="icon-check" viewBox="0 0 24 24">
    <polyline points="20 6 9 17 4 12" fill="none" stroke="currentColor" stroke-width="2.5" stroke-linecap="round" stroke-linejoin="round"/>
  </symbol>
  <symbol id="icon-arrow-right" viewBox="0 0 24 24">
    <line x1="5" y1="12" x2="19" y2="12" stroke="currentColor" stroke-width="2" stroke-linecap="round"/>
    <polyline points="12 5 19 12 12 19" fill="none" stroke="currentColor" stroke-width="2" stroke-linecap="round" stroke-linejoin="round"/>
  </symbol>
  <symbol id="icon-star" viewBox="0 0 24 24">
    <polygon points="12 2 15.09 8.26 22 9.27 17 14.14 18.18 21.02 12 17.77 5.82 21.02 7 14.14 2 9.27 8.91 8.26 12 2" fill="currentColor" stroke="currentColor" stroke-width="1" stroke-linejoin="round"/>
  </symbol>
  <symbol id="icon-chevron-down" viewBox="0 0 24 24">
    <polyline points="6 9 12 15 18 9" fill="none" stroke="currentColor" stroke-width="2" stroke-linecap="round" stroke-linejoin="round"/>
  </symbol>
  <symbol id="icon-menu" viewBox="0 0 24 24">
    <line x1="3" y1="6" x2="21" y2="6" stroke="currentColor" stroke-width="2" stroke-linecap="round"/>
    <line x1="3" y1="12" x2="17" y2="12" stroke="currentColor" stroke-width="2" stroke-linecap="round"/>
    <line x1="3" y1="18" x2="21" y2="18" stroke="currentColor" stroke-width="2" stroke-linecap="round"/>
  </symbol>
  <symbol id="icon-close" viewBox="0 0 24 24">
    <line x1="18" y1="6" x2="6" y2="18" stroke="currentColor" stroke-width="2" stroke-linecap="round"/>
    <line x1="6" y1="6" x2="18" y2="18" stroke="currentColor" stroke-width="2" stroke-linecap="round"/>
  </symbol>
  <symbol id="icon-cart" viewBox="0 0 24 24">
    <path d="M6 2L3 6v14a2 2 0 002 2h14a2 2 0 002-2V6l-3-4z" fill="none" stroke="currentColor" stroke-width="1.5" stroke-linejoin="round"/>
    <line x1="3" y1="6" x2="21" y2="6" stroke="currentColor" stroke-width="1.5"/>
    <path d="M16 10a4 4 0 01-8 0" fill="none" stroke="currentColor" stroke-width="1.5" stroke-linecap="round"/>
  </symbol>
  <symbol id="icon-search" viewBox="0 0 24 24">
    <circle cx="11" cy="11" r="7" fill="none" stroke="currentColor" stroke-width="1.5"/>
    <line x1="16.5" y1="16.5" x2="22" y2="22" stroke="currentColor" stroke-width="2" stroke-linecap="round"/>
  </symbol>
  <symbol id="icon-instagram" viewBox="0 0 24 24">
    <rect x="2" y="2" width="20" height="20" rx="5" fill="none" stroke="currentColor" stroke-width="1.5"/>
    <circle cx="12" cy="12" r="4" fill="none" stroke="currentColor" stroke-width="1.5"/>
    <circle cx="17.5" cy="6.5" r="1" fill="currentColor"/>
  </symbol>
  <symbol id="icon-facebook" viewBox="0 0 24 24">
    <path d="M18 2h-3a5 5 0 00-5 5v3H7v4h3v8h4v-8h3l1-4h-4V7a1 1 0 011-1h3V2z" fill="none" stroke="currentColor" stroke-width="1.5" stroke-linejoin="round"/>
  </symbol>
  <symbol id="icon-youtube" viewBox="0 0 24 24">
    <path d="M22.54 6.42a2.78 2.78 0 00-1.95-1.97C18.88 4 12 4 12 4s-6.88 0-8.59.45A2.78 2.78 0 001.46 6.42 29 29 0 001 12a29 29 0 00.46 5.58 2.78 2.78 0 001.95 1.97C5.12 20 12 20 12 20s6.88 0 8.59-.45a2.78 2.78 0 001.95-1.97A29 29 0 0023 12a29 29 0 00-.46-5.58z" fill="none" stroke="currentColor" stroke-width="1.5"/>
    <polygon points="9.75 15.02 15.5 12 9.75 8.98 9.75 15.02" fill="currentColor"/>
  </symbol>
  <symbol id="icon-award" viewBox="0 0 24 24">
    <circle cx="12" cy="8" r="6" fill="none" stroke="currentColor" stroke-width="1.5"/>
    <path d="M8.56 13.8L7 22l5-3 5 3-1.56-8.2" fill="none" stroke="currentColor" stroke-width="1.5" stroke-linejoin="round"/>
  </symbol>
  <symbol id="icon-leaf" viewBox="0 0 24 24">
    <path d="M17 8C8 10 5.9 16.17 3.82 19.34c0 0 4 2 9.18-2.06C18 13.66 20 7 20 7s-1.24 3.21-3 1z" fill="none" stroke="currentColor" stroke-width="1.5" stroke-linejoin="round"/>
    <path d="M3.82 19.34c4-1 6.59-2.89 6.59-2.89" fill="none" stroke="currentColor" stroke-width="1.5" stroke-linecap="round"/>
  </symbol>
  <symbol id="icon-clock" viewBox="0 0 24 24">
    <circle cx="12" cy="12" r="10" fill="none" stroke="currentColor" stroke-width="1.5"/>
    <polyline points="12 6 12 12 16 14" fill="none" stroke="currentColor" stroke-width="1.5" stroke-linecap="round" stroke-linejoin="round"/>
  </symbol>
  <symbol id="icon-phone" viewBox="0 0 24 24">
    <path d="M22 16.92v3a2 2 0 01-2.18 2 19.79 19.79 0 01-8.63-3.07A19.5 19.5 0 013.07 10.8a19.79 19.79 0 01-3.07-8.67A2 2 0 012.18 0h3a2 2 0 012 1.72c.127.96.361 1.903.7 2.81a2 2 0 01-.45 2.11L6.09 7.91a16 16 0 006 6l1.27-1.27a2 2 0 012.11-.45c.907.339 1.85.573 2.81.7A2 2 0 0122 16.92z" fill="none" stroke="currentColor" stroke-width="1.5" stroke-linecap="round" stroke-linejoin="round"/>
  </symbol>
  <symbol id="icon-mail" viewBox="0 0 24 24">
    <path d="M4 4h16c1.1 0 2 .9 2 2v12c0 1.1-.9 2-2 2H4c-1.1 0-2-.9-2-2V6c0-1.1.9-2 2-2z" fill="none" stroke="currentColor" stroke-width="1.5"/>
    <polyline points="22 6 12 13 2 6" fill="none" stroke="currentColor" stroke-width="1.5"/>
  </symbol>
  <symbol id="icon-modular" viewBox="0 0 24 24">
    <rect x="2" y="15" width="8" height="6" rx="1" fill="none" stroke="currentColor" stroke-width="1.5"/>
    <rect x="8" y="9" width="8" height="6" rx="1" fill="none" stroke="currentColor" stroke-width="1.5"/>
    <rect x="14" y="3" width="8" height="6" rx="1" fill="none" stroke="currentColor" stroke-width="1.5"/>
    <line x1="6" y1="15" x2="12" y2="15" stroke="currentColor" stroke-width="1" stroke-linecap="round" stroke-dasharray="2 2"/>
    <line x1="12" y1="9" x2="18" y2="9" stroke="currentColor" stroke-width="1" stroke-linecap="round" stroke-dasharray="2 2"/>
  </symbol>
  <symbol id="icon-energy-route" viewBox="0 0 24 24">
    <circle cx="4" cy="12" r="2.5" fill="none" stroke="currentColor" stroke-width="1.5"/>
    <circle cx="20" cy="4" r="2.5" fill="none" stroke="currentColor" stroke-width="1.5"/>
    <circle cx="20" cy="20" r="2.5" fill="none" stroke="currentColor" stroke-width="1.5"/>
    <path d="M6.5 12h4l3.5-5.5L17.5 5.5" fill="none" stroke="currentColor" stroke-width="1.5" stroke-linecap="round"/>
    <path d="M6.5 12h4L14 18l3.5 1.5" fill="none" stroke="currentColor" stroke-width="1.5" stroke-linecap="round"/>
  </symbol>
  <symbol id="icon-sine-wave" viewBox="0 0 24 24">
    <path d="M2 12c1.5 0 2-3 3.5-3S8 12 9.5 12s2-3 3.5-3 2 3 3.5 3 2-3 3.5-3S22 12 22 12" fill="none" stroke="currentColor" stroke-width="1.5" stroke-linecap="round"/>
  </symbol>
  <symbol id="icon-globe" viewBox="0 0 24 24">
    <circle cx="12" cy="12" r="10" fill="none" stroke="currentColor" stroke-width="1.5"/>
    <path d="M12 2c-3 4-3 16 0 20M12 2c3 4 3 16 0 20" fill="none" stroke="currentColor" stroke-width="1.5"/>
    <line x1="2" y1="12" x2="22" y2="12" stroke="currentColor" stroke-width="1.5"/>
    <path d="M3.5 7h17M3.5 17h17" fill="none" stroke="currentColor" stroke-width="1" stroke-linecap="round" opacity="0.6"/>
  </symbol>
</svg>
